<mxfile host="app.diagrams.net" agent="Mozilla/5.0 (Windows NT 10.0; Win64; x64) AppleWebKit/537.36 (KHTML, like Gecko) Chrome/128.0.0.0 Safari/537.36 Edg/128.0.0.0" version="24.7.12" pages="2">
  <diagram name="Page-1" id="1bDYbh7O_C1ZmEsYncN1">
    <mxGraphModel dx="1828" dy="1147" grid="1" gridSize="10" guides="1" tooltips="1" connect="1" arrows="1" fold="1" page="1" pageScale="1" pageWidth="2336" pageHeight="1654" math="0" shadow="0">
      <root>
        <mxCell id="0" />
        <mxCell id="1" parent="0" />
        <mxCell id="jmeebRlqSW93By4ZmM5f-60" value="" style="shape=ext;double=1;rounded=1;whiteSpace=wrap;html=1;fontFamily=Helvetica;fontSize=12;fontColor=default;labelBackgroundColor=default;" parent="1" vertex="1">
          <mxGeometry x="1220" y="520" width="510" height="810" as="geometry" />
        </mxCell>
        <mxCell id="jmeebRlqSW93By4ZmM5f-1" value="" style="shape=ext;double=1;rounded=1;whiteSpace=wrap;html=1;sketch=1;fillWeight=4;hachureGap=8;hachureAngle=45;strokeWidth=2;align=center;verticalAlign=middle;fontFamily=Helvetica;fontSize=12;fillStyle=solid;dashed=1;strokeColor=#007FFF;" parent="1" vertex="1">
          <mxGeometry x="240" y="430" width="640" height="700" as="geometry" />
        </mxCell>
        <mxCell id="jmeebRlqSW93By4ZmM5f-5" value="" style="edgeStyle=orthogonalEdgeStyle;rounded=1;orthogonalLoop=1;jettySize=auto;html=1;dashed=1;sketch=1;fillWeight=4;hachureGap=8;hachureAngle=45;strokeColor=#3399FF;strokeWidth=2;align=center;verticalAlign=middle;fontFamily=Helvetica;fontSize=12;fontColor=default;labelBackgroundColor=default;endArrow=classic;fillColor=#1ba1e2;" parent="1" source="jmeebRlqSW93By4ZmM5f-2" target="jmeebRlqSW93By4ZmM5f-4" edge="1">
          <mxGeometry relative="1" as="geometry" />
        </mxCell>
        <mxCell id="jmeebRlqSW93By4ZmM5f-33" value="" style="edgeStyle=orthogonalEdgeStyle;shape=connector;rounded=1;sketch=1;fillWeight=4;hachureGap=8;hachureAngle=45;orthogonalLoop=1;jettySize=auto;html=1;dashed=1;strokeColor=#3399FF;strokeWidth=2;align=center;verticalAlign=middle;fontFamily=Helvetica;fontSize=12;fontColor=default;labelBackgroundColor=default;endArrow=classic;fillColor=#1ba1e2;" parent="1" source="jmeebRlqSW93By4ZmM5f-2" target="jmeebRlqSW93By4ZmM5f-4" edge="1">
          <mxGeometry relative="1" as="geometry" />
        </mxCell>
        <mxCell id="jmeebRlqSW93By4ZmM5f-2" value="" style="rounded=1;whiteSpace=wrap;html=1;strokeWidth=2;fillWeight=4;hachureGap=8;hachureAngle=45;fillColor=#1ba1e2;sketch=1;" parent="1" vertex="1">
          <mxGeometry x="490" y="1280" width="120" height="40" as="geometry" />
        </mxCell>
        <mxCell id="jmeebRlqSW93By4ZmM5f-4" value="" style="ellipse;whiteSpace=wrap;html=1;fillColor=#1ba1e2;rounded=1;strokeWidth=2;fillWeight=4;hachureGap=8;hachureAngle=45;sketch=1;" parent="1" vertex="1">
          <mxGeometry x="510" y="1140" width="80" height="80" as="geometry" />
        </mxCell>
        <mxCell id="jmeebRlqSW93By4ZmM5f-6" value="Input embedding" style="text;html=1;align=center;verticalAlign=middle;whiteSpace=wrap;rounded=0;" parent="1" vertex="1">
          <mxGeometry x="520" y="1330" width="60" height="30" as="geometry" />
        </mxCell>
        <mxCell id="jmeebRlqSW93By4ZmM5f-7" value="position embedding" style="text;html=1;align=center;verticalAlign=middle;whiteSpace=wrap;rounded=0;" parent="1" vertex="1">
          <mxGeometry x="430" y="1165" width="60" height="30" as="geometry" />
        </mxCell>
        <mxCell id="jmeebRlqSW93By4ZmM5f-9" style="edgeStyle=orthogonalEdgeStyle;rounded=0;orthogonalLoop=1;jettySize=auto;html=1;exitX=0.5;exitY=1;exitDx=0;exitDy=0;" parent="1" source="jmeebRlqSW93By4ZmM5f-1" target="jmeebRlqSW93By4ZmM5f-1" edge="1">
          <mxGeometry relative="1" as="geometry" />
        </mxCell>
        <mxCell id="jmeebRlqSW93By4ZmM5f-22" value="" style="endArrow=classic;html=1;rounded=1;dashed=1;strokeWidth=2;strokeColor=#3399FF;sketch=1;fillWeight=4;hachureGap=8;hachureAngle=45;align=center;verticalAlign=middle;fontFamily=Helvetica;fontSize=12;fontColor=default;fillColor=#1ba1e2;entryX=0.5;entryY=1;entryDx=0;entryDy=0;" parent="1" target="jmeebRlqSW93By4ZmM5f-23" edge="1">
          <mxGeometry width="50" height="50" relative="1" as="geometry">
            <mxPoint x="549" y="1140" as="sourcePoint" />
            <mxPoint x="549" y="1060" as="targetPoint" />
          </mxGeometry>
        </mxCell>
        <mxCell id="jmeebRlqSW93By4ZmM5f-58" value="" style="shape=connector;rounded=1;sketch=1;fillWeight=4;hachureGap=8;hachureAngle=45;orthogonalLoop=1;jettySize=auto;html=1;dashed=1;strokeColor=#3399FF;strokeWidth=2;align=center;verticalAlign=middle;fontFamily=Helvetica;fontSize=12;fontColor=default;labelBackgroundColor=default;endArrow=classic;fillColor=#1ba1e2;" parent="1" edge="1">
          <mxGeometry relative="1" as="geometry">
            <mxPoint x="660" y="960" as="sourcePoint" />
            <mxPoint x="1222" y="530" as="targetPoint" />
            <Array as="points">
              <mxPoint x="892" y="780" />
              <mxPoint x="982" y="710" />
            </Array>
          </mxGeometry>
        </mxCell>
        <mxCell id="jmeebRlqSW93By4ZmM5f-23" value="multi-head attention" style="rounded=1;whiteSpace=wrap;html=1;strokeWidth=2;fillWeight=4;hachureGap=8;hachureAngle=45;fillColor=#1ba1e2;sketch=1;" parent="1" vertex="1">
          <mxGeometry x="440" y="940" width="220" height="90" as="geometry" />
        </mxCell>
        <mxCell id="jmeebRlqSW93By4ZmM5f-31" value="" style="edgeStyle=orthogonalEdgeStyle;shape=connector;rounded=1;sketch=1;fillWeight=4;hachureGap=8;hachureAngle=45;orthogonalLoop=1;jettySize=auto;html=1;dashed=1;strokeColor=#3399FF;strokeWidth=2;align=center;verticalAlign=middle;fontFamily=Helvetica;fontSize=12;fontColor=default;labelBackgroundColor=default;endArrow=classic;fillColor=#1ba1e2;" parent="1" source="jmeebRlqSW93By4ZmM5f-23" target="jmeebRlqSW93By4ZmM5f-28" edge="1">
          <mxGeometry relative="1" as="geometry" />
        </mxCell>
        <mxCell id="jmeebRlqSW93By4ZmM5f-25" value="FNN" style="ellipse;whiteSpace=wrap;html=1;strokeWidth=2;fillWeight=2;hachureGap=8;fillColor=#990000;fillStyle=dots;sketch=1;fontFamily=Helvetica;fontSize=12;fontColor=default;labelBackgroundColor=default;" parent="1" vertex="1">
          <mxGeometry x="440" y="580" width="220" height="110" as="geometry" />
        </mxCell>
        <mxCell id="jmeebRlqSW93By4ZmM5f-29" value="" style="edgeStyle=segmentEdgeStyle;endArrow=classic;html=1;curved=0;rounded=0;endSize=8;startSize=8;dashed=1;sketch=1;fillWeight=4;hachureGap=8;hachureAngle=45;strokeColor=#3399FF;strokeWidth=2;align=center;verticalAlign=middle;fontFamily=Helvetica;fontSize=12;fontColor=default;labelBackgroundColor=default;fillColor=#1ba1e2;" parent="1" target="jmeebRlqSW93By4ZmM5f-28" edge="1">
          <mxGeometry width="50" height="50" relative="1" as="geometry">
            <mxPoint x="550" y="1100" as="sourcePoint" />
            <mxPoint x="540" y="890" as="targetPoint" />
            <Array as="points">
              <mxPoint x="550" y="1090" />
              <mxPoint x="310" y="1090" />
              <mxPoint x="310" y="810" />
            </Array>
          </mxGeometry>
        </mxCell>
        <mxCell id="jmeebRlqSW93By4ZmM5f-28" value="add &amp;amp; norm" style="rhombus;whiteSpace=wrap;html=1;strokeWidth=2;fillWeight=-1;hachureGap=8;fillStyle=cross-hatch;fillColor=#006600;sketch=1;fontFamily=Helvetica;fontSize=12;fontColor=default;labelBackgroundColor=default;" parent="1" vertex="1">
          <mxGeometry x="420" y="780" width="260" height="60" as="geometry" />
        </mxCell>
        <mxCell id="jmeebRlqSW93By4ZmM5f-34" value="" style="edgeStyle=orthogonalEdgeStyle;shape=connector;rounded=1;sketch=1;fillWeight=4;hachureGap=8;hachureAngle=45;orthogonalLoop=1;jettySize=auto;html=1;dashed=1;strokeColor=#3399FF;strokeWidth=2;align=center;verticalAlign=middle;fontFamily=Helvetica;fontSize=12;fontColor=default;labelBackgroundColor=default;endArrow=classic;fillColor=#1ba1e2;entryX=0.5;entryY=1;entryDx=0;entryDy=0;" parent="1" target="jmeebRlqSW93By4ZmM5f-25" edge="1">
          <mxGeometry relative="1" as="geometry">
            <mxPoint x="549.5" y="840" as="sourcePoint" />
            <mxPoint x="549.5" y="780" as="targetPoint" />
          </mxGeometry>
        </mxCell>
        <mxCell id="jmeebRlqSW93By4ZmM5f-36" value="" style="edgeStyle=segmentEdgeStyle;endArrow=classic;html=1;curved=0;rounded=0;endSize=8;startSize=8;dashed=1;sketch=1;fillWeight=4;hachureGap=8;hachureAngle=45;strokeColor=#3399FF;strokeWidth=2;align=center;verticalAlign=middle;fontFamily=Helvetica;fontSize=12;fontColor=default;labelBackgroundColor=default;fillColor=#1ba1e2;" parent="1" edge="1">
          <mxGeometry width="50" height="50" relative="1" as="geometry">
            <mxPoint x="550" y="770" as="sourcePoint" />
            <mxPoint x="680" y="480" as="targetPoint" />
            <Array as="points">
              <mxPoint x="550" y="760" />
              <mxPoint x="310" y="760" />
              <mxPoint x="310" y="480" />
            </Array>
          </mxGeometry>
        </mxCell>
        <mxCell id="jmeebRlqSW93By4ZmM5f-37" value="add &amp;amp; norm" style="rhombus;whiteSpace=wrap;html=1;strokeWidth=2;fillWeight=-1;hachureGap=8;fillStyle=cross-hatch;fillColor=#006600;sketch=1;fontFamily=Helvetica;fontSize=12;fontColor=default;labelBackgroundColor=default;" parent="1" vertex="1">
          <mxGeometry x="430" y="450" width="260" height="60" as="geometry" />
        </mxCell>
        <mxCell id="jmeebRlqSW93By4ZmM5f-38" value="" style="edgeStyle=orthogonalEdgeStyle;shape=connector;rounded=1;sketch=1;fillWeight=4;hachureGap=8;hachureAngle=45;orthogonalLoop=1;jettySize=auto;html=1;dashed=1;strokeColor=#3399FF;strokeWidth=2;align=center;verticalAlign=middle;fontFamily=Helvetica;fontSize=12;fontColor=default;labelBackgroundColor=default;endArrow=classic;fillColor=#1ba1e2;entryX=0.5;entryY=1;entryDx=0;entryDy=0;" parent="1" edge="1">
          <mxGeometry relative="1" as="geometry">
            <mxPoint x="560" y="590" as="sourcePoint" />
            <mxPoint x="560" y="510" as="targetPoint" />
          </mxGeometry>
        </mxCell>
        <mxCell id="jmeebRlqSW93By4ZmM5f-63" value="" style="edgeStyle=orthogonalEdgeStyle;shape=connector;rounded=1;sketch=1;fillWeight=4;hachureGap=8;hachureAngle=45;orthogonalLoop=1;jettySize=auto;html=1;dashed=1;strokeColor=#3399FF;strokeWidth=2;align=center;verticalAlign=middle;fontFamily=Helvetica;fontSize=12;fontColor=default;labelBackgroundColor=default;endArrow=classic;fillColor=#1ba1e2;" parent="1" source="jmeebRlqSW93By4ZmM5f-57" target="jmeebRlqSW93By4ZmM5f-62" edge="1">
          <mxGeometry relative="1" as="geometry" />
        </mxCell>
        <mxCell id="jmeebRlqSW93By4ZmM5f-57" value="inputs" style="whiteSpace=wrap;html=1;fillColor=#1ba1e2;rounded=1;strokeWidth=2;fillWeight=4;hachureGap=8;hachureAngle=45;sketch=1;" parent="1" vertex="1">
          <mxGeometry x="1430" y="1210" width="120" height="60" as="geometry" />
        </mxCell>
        <mxCell id="jmeebRlqSW93By4ZmM5f-59" value="" style="shape=connector;rounded=1;sketch=1;fillWeight=4;hachureGap=8;hachureAngle=45;orthogonalLoop=1;jettySize=auto;html=1;dashed=1;strokeColor=#3399FF;strokeWidth=2;align=center;verticalAlign=middle;fontFamily=Helvetica;fontSize=12;fontColor=default;labelBackgroundColor=default;endArrow=classic;fillColor=#1ba1e2;" parent="1" edge="1">
          <mxGeometry relative="1" as="geometry">
            <mxPoint x="660" y="990" as="sourcePoint" />
            <mxPoint x="1170" y="1300" as="targetPoint" />
            <Array as="points" />
          </mxGeometry>
        </mxCell>
        <mxCell id="jmeebRlqSW93By4ZmM5f-62" value="K" style="whiteSpace=wrap;html=1;fillColor=#1ba1e2;rounded=1;strokeWidth=2;fillWeight=4;hachureGap=8;hachureAngle=45;sketch=1;" parent="1" vertex="1">
          <mxGeometry x="1430" y="1070" width="120" height="60" as="geometry" />
        </mxCell>
        <mxCell id="jmeebRlqSW93By4ZmM5f-74" style="edgeStyle=orthogonalEdgeStyle;shape=connector;rounded=1;sketch=1;fillWeight=4;hachureGap=8;hachureAngle=45;orthogonalLoop=1;jettySize=auto;html=1;entryX=1;entryY=0.25;entryDx=0;entryDy=0;dashed=1;strokeColor=#3399FF;strokeWidth=2;align=center;verticalAlign=middle;fontFamily=Helvetica;fontSize=12;fontColor=default;labelBackgroundColor=default;endArrow=classic;fillColor=#1ba1e2;" parent="1" source="jmeebRlqSW93By4ZmM5f-64" target="jmeebRlqSW93By4ZmM5f-72" edge="1">
          <mxGeometry relative="1" as="geometry">
            <Array as="points">
              <mxPoint x="1630" y="790" />
            </Array>
          </mxGeometry>
        </mxCell>
        <mxCell id="jmeebRlqSW93By4ZmM5f-64" value="V" style="whiteSpace=wrap;html=1;fillColor=#1ba1e2;rounded=1;strokeWidth=2;fillWeight=4;hachureGap=8;hachureAngle=45;sketch=1;" parent="1" vertex="1">
          <mxGeometry x="1570" y="1070" width="120" height="60" as="geometry" />
        </mxCell>
        <mxCell id="jmeebRlqSW93By4ZmM5f-65" value="Q" style="whiteSpace=wrap;html=1;fillColor=#1ba1e2;rounded=1;strokeWidth=2;fillWeight=4;hachureGap=8;hachureAngle=45;sketch=1;" parent="1" vertex="1">
          <mxGeometry x="1290" y="1070" width="120" height="60" as="geometry" />
        </mxCell>
        <mxCell id="jmeebRlqSW93By4ZmM5f-66" value="" style="shape=connector;rounded=1;sketch=1;fillWeight=4;hachureGap=8;hachureAngle=45;orthogonalLoop=1;jettySize=auto;html=1;dashed=1;strokeColor=#3399FF;strokeWidth=2;align=center;verticalAlign=middle;fontFamily=Helvetica;fontSize=12;fontColor=default;labelBackgroundColor=default;endArrow=classic;fillColor=#1ba1e2;entryX=0.383;entryY=1.083;entryDx=0;entryDy=0;entryPerimeter=0;exitX=0.5;exitY=0;exitDx=0;exitDy=0;" parent="1" source="jmeebRlqSW93By4ZmM5f-57" target="jmeebRlqSW93By4ZmM5f-64" edge="1">
          <mxGeometry relative="1" as="geometry">
            <mxPoint x="1500" y="1220" as="sourcePoint" />
            <mxPoint x="1500" y="1140" as="targetPoint" />
          </mxGeometry>
        </mxCell>
        <mxCell id="jmeebRlqSW93By4ZmM5f-67" value="" style="shape=connector;rounded=1;sketch=1;fillWeight=4;hachureGap=8;hachureAngle=45;orthogonalLoop=1;jettySize=auto;html=1;dashed=1;strokeColor=#3399FF;strokeWidth=2;align=center;verticalAlign=middle;fontFamily=Helvetica;fontSize=12;fontColor=default;labelBackgroundColor=default;endArrow=classic;fillColor=#1ba1e2;entryX=0.383;entryY=1.083;entryDx=0;entryDy=0;entryPerimeter=0;exitX=0.5;exitY=0;exitDx=0;exitDy=0;" parent="1" source="jmeebRlqSW93By4ZmM5f-57" edge="1">
          <mxGeometry relative="1" as="geometry">
            <mxPoint x="1230" y="1205" as="sourcePoint" />
            <mxPoint x="1356" y="1130" as="targetPoint" />
          </mxGeometry>
        </mxCell>
        <mxCell id="jmeebRlqSW93By4ZmM5f-71" value="" style="edgeStyle=orthogonalEdgeStyle;shape=connector;rounded=1;sketch=1;fillWeight=4;hachureGap=8;hachureAngle=45;orthogonalLoop=1;jettySize=auto;html=1;dashed=1;strokeColor=#3399FF;strokeWidth=2;align=center;verticalAlign=middle;fontFamily=Helvetica;fontSize=12;fontColor=default;labelBackgroundColor=default;endArrow=classic;fillColor=#1ba1e2;" parent="1" source="jmeebRlqSW93By4ZmM5f-68" edge="1">
          <mxGeometry relative="1" as="geometry">
            <mxPoint x="1410" y="975" as="targetPoint" />
          </mxGeometry>
        </mxCell>
        <mxCell id="jmeebRlqSW93By4ZmM5f-68" value="" style="shape=partialRectangle;whiteSpace=wrap;html=1;bottom=1;right=1;left=1;top=0;fillColor=none;routingCenterX=-0.5;fontFamily=Helvetica;fontSize=12;fontColor=default;labelBackgroundColor=default;rotation=-180;dashed=1;dashPattern=8 8;strokeWidth=2;rounded=1;sketch=1;fillWeight=4;hachureGap=8;hachureAngle=45;strokeColor=#3399FF;align=center;verticalAlign=middle;" parent="1" vertex="1">
          <mxGeometry x="1330" y="1040" width="160" height="30" as="geometry" />
        </mxCell>
        <mxCell id="jmeebRlqSW93By4ZmM5f-69" value="" style="endArrow=classic;html=1;rounded=1;dashed=1;sketch=1;fillWeight=4;hachureGap=8;hachureAngle=45;strokeColor=#3399FF;strokeWidth=2;align=center;verticalAlign=middle;fontFamily=Helvetica;fontSize=12;fontColor=default;labelBackgroundColor=default;edgeStyle=orthogonalEdgeStyle;fillColor=#1ba1e2;" parent="1" edge="1">
          <mxGeometry width="50" height="50" relative="1" as="geometry">
            <mxPoint x="910" y="1090" as="sourcePoint" />
            <mxPoint x="960" y="1040" as="targetPoint" />
          </mxGeometry>
        </mxCell>
        <mxCell id="jmeebRlqSW93By4ZmM5f-73" value="" style="edgeStyle=orthogonalEdgeStyle;shape=connector;rounded=1;sketch=1;fillWeight=4;hachureGap=8;hachureAngle=45;orthogonalLoop=1;jettySize=auto;html=1;dashed=1;strokeColor=#3399FF;strokeWidth=2;align=center;verticalAlign=middle;fontFamily=Helvetica;fontSize=12;fontColor=default;labelBackgroundColor=default;endArrow=classic;fillColor=#1ba1e2;" parent="1" target="jmeebRlqSW93By4ZmM5f-72" edge="1">
          <mxGeometry relative="1" as="geometry">
            <mxPoint x="1410" y="915" as="sourcePoint" />
          </mxGeometry>
        </mxCell>
        <mxCell id="jmeebRlqSW93By4ZmM5f-76" value="" style="edgeStyle=orthogonalEdgeStyle;shape=connector;rounded=1;sketch=1;fillWeight=4;hachureGap=8;hachureAngle=45;orthogonalLoop=1;jettySize=auto;html=1;dashed=1;strokeColor=#3399FF;strokeWidth=2;align=center;verticalAlign=middle;fontFamily=Helvetica;fontSize=12;fontColor=default;labelBackgroundColor=default;endArrow=classic;fillColor=#1ba1e2;" parent="1" source="jmeebRlqSW93By4ZmM5f-72" target="jmeebRlqSW93By4ZmM5f-75" edge="1">
          <mxGeometry relative="1" as="geometry" />
        </mxCell>
        <mxCell id="jmeebRlqSW93By4ZmM5f-72" value="" style="whiteSpace=wrap;html=1;fillColor=#007FFF;strokeColor=#3399FF;labelBackgroundColor=default;dashed=1;dashPattern=8 8;strokeWidth=2;rounded=1;sketch=1;fillWeight=4;hachureGap=8;hachureAngle=45;" parent="1" vertex="1">
          <mxGeometry x="1350" y="775" width="120" height="60" as="geometry" />
        </mxCell>
        <mxCell id="jmeebRlqSW93By4ZmM5f-75" value="attention matrics" style="ellipse;whiteSpace=wrap;html=1;fillColor=#007FFF;strokeColor=#3399FF;labelBackgroundColor=default;dashed=1;dashPattern=8 8;strokeWidth=2;rounded=1;sketch=1;fillWeight=4;hachureGap=8;hachureAngle=45;" parent="1" vertex="1">
          <mxGeometry x="1370" y="625" width="80" height="80" as="geometry" />
        </mxCell>
        <mxCell id="jmeebRlqSW93By4ZmM5f-77" value="" style="whiteSpace=wrap;html=1;fillColor=#007FFF;strokeColor=#3399FF;labelBackgroundColor=default;dashed=1;dashPattern=8 8;strokeWidth=2;rounded=1;sketch=1;fillWeight=4;hachureGap=8;hachureAngle=45;" parent="1" vertex="1">
          <mxGeometry x="1340" y="920" width="120" height="60" as="geometry" />
        </mxCell>
        <mxCell id="jmeebRlqSW93By4ZmM5f-78" value="" style="whiteSpace=wrap;html=1;fillColor=#007FFF;strokeColor=#3399FF;labelBackgroundColor=default;dashed=1;dashPattern=8 8;strokeWidth=2;rounded=1;sketch=1;fillWeight=4;hachureGap=8;hachureAngle=45;" parent="1" vertex="1">
          <mxGeometry x="1350" y="910" width="120" height="60" as="geometry" />
        </mxCell>
        <mxCell id="jmeebRlqSW93By4ZmM5f-79" value="" style="whiteSpace=wrap;html=1;fillColor=#007FFF;strokeColor=#3399FF;labelBackgroundColor=default;dashed=1;dashPattern=8 8;strokeWidth=2;rounded=1;sketch=1;fillWeight=4;hachureGap=8;hachureAngle=45;" parent="1" vertex="1">
          <mxGeometry x="1360" y="895" width="120" height="60" as="geometry" />
        </mxCell>
        <mxCell id="jmeebRlqSW93By4ZmM5f-80" value="multi-head attention&lt;div&gt;&lt;br&gt;&lt;/div&gt;" style="text;html=1;align=center;verticalAlign=middle;whiteSpace=wrap;rounded=0;fontFamily=Helvetica;fontSize=12;fontColor=default;labelBackgroundColor=default;" parent="1" vertex="1">
          <mxGeometry x="1260" y="935" width="80" height="30" as="geometry" />
        </mxCell>
      </root>
    </mxGraphModel>
  </diagram>
  <diagram id="SAiKmW5afNc2xsQaIsaq" name="Page-2">
    <mxGraphModel dx="1869" dy="1147" grid="1" gridSize="10" guides="1" tooltips="1" connect="1" arrows="1" fold="1" page="1" pageScale="1" pageWidth="3300" pageHeight="4681" math="0" shadow="0">
      <root>
        <mxCell id="0" />
        <mxCell id="1" parent="0" />
        <mxCell id="-bIso76fyn88DyohU2h1-88" value="" style="shape=ext;double=1;rounded=1;whiteSpace=wrap;html=1;fontFamily=Helvetica;fontSize=12;labelBackgroundColor=default;fillColor=#d5e8d4;strokeColor=#82b366;" vertex="1" parent="1">
          <mxGeometry x="250" y="910" width="814.5" height="710" as="geometry" />
        </mxCell>
        <mxCell id="-bIso76fyn88DyohU2h1-10" value="" style="shape=ext;double=1;rounded=1;whiteSpace=wrap;html=1;fontFamily=Helvetica;fontSize=12;labelBackgroundColor=default;fillColor=#d5e8d4;strokeColor=#82b366;" vertex="1" parent="1">
          <mxGeometry x="250" y="319.5" width="809" height="480" as="geometry" />
        </mxCell>
        <mxCell id="-bIso76fyn88DyohU2h1-3" value="" style="shape=ext;double=1;rounded=1;whiteSpace=wrap;html=1;fontFamily=Helvetica;fontSize=12;labelBackgroundColor=default;fillColor=#d5e8d4;strokeColor=#82b366;" vertex="1" parent="1">
          <mxGeometry x="250" y="110" width="800" height="190" as="geometry" />
        </mxCell>
        <mxCell id="-bIso76fyn88DyohU2h1-4" value="" style="rounded=1;whiteSpace=wrap;html=1;strokeWidth=2;fillWeight=4;hachureGap=8;hachureAngle=45;fillColor=#1ba1e2;sketch=1;fontFamily=Helvetica;fontSize=12;fontColor=default;labelBackgroundColor=default;" vertex="1" parent="1">
          <mxGeometry x="350" y="170" width="120" height="60" as="geometry" />
        </mxCell>
        <mxCell id="-bIso76fyn88DyohU2h1-5" value="" style="rounded=1;whiteSpace=wrap;html=1;strokeWidth=2;fillWeight=4;hachureGap=8;hachureAngle=45;fillColor=#66FFB3;sketch=1;fontFamily=Helvetica;fontSize=12;fontColor=default;labelBackgroundColor=default;rotation=90;" vertex="1" parent="1">
          <mxGeometry x="570" y="170" width="120" height="60" as="geometry" />
        </mxCell>
        <mxCell id="-bIso76fyn88DyohU2h1-6" value="X" style="text;html=1;align=center;verticalAlign=middle;whiteSpace=wrap;rounded=0;fontFamily=Helvetica;fontSize=12;fontColor=default;labelBackgroundColor=default;" vertex="1" parent="1">
          <mxGeometry x="510" y="190" width="60" height="30" as="geometry" />
        </mxCell>
        <mxCell id="-bIso76fyn88DyohU2h1-7" value="=" style="text;html=1;align=center;verticalAlign=middle;whiteSpace=wrap;rounded=0;fontFamily=Helvetica;fontSize=12;fontColor=default;labelBackgroundColor=default;" vertex="1" parent="1">
          <mxGeometry x="720" y="190" width="60" height="30" as="geometry" />
        </mxCell>
        <mxCell id="-bIso76fyn88DyohU2h1-9" value="" style="rounded=1;whiteSpace=wrap;html=1;strokeWidth=2;fillWeight=4;hachureGap=8;hachureAngle=45;fillColor=#FF33FF;sketch=1;fontFamily=Helvetica;fontSize=12;fontColor=default;labelBackgroundColor=default;" vertex="1" parent="1">
          <mxGeometry x="820" y="195" width="40" height="20" as="geometry" />
        </mxCell>
        <mxCell id="-bIso76fyn88DyohU2h1-11" value="" style="rounded=1;whiteSpace=wrap;html=1;strokeWidth=2;fillWeight=4;hachureGap=8;hachureAngle=45;fillColor=#1ba1e2;sketch=1;fontFamily=Helvetica;fontSize=12;fontColor=default;labelBackgroundColor=default;" vertex="1" parent="1">
          <mxGeometry x="340" y="380" width="120" height="60" as="geometry" />
        </mxCell>
        <mxCell id="-bIso76fyn88DyohU2h1-12" value="" style="rounded=1;whiteSpace=wrap;html=1;strokeWidth=2;fillWeight=4;hachureGap=8;hachureAngle=45;fillColor=#1ba1e2;sketch=1;fontFamily=Helvetica;fontSize=12;fontColor=default;labelBackgroundColor=default;" vertex="1" parent="1">
          <mxGeometry x="340" y="440" width="120" height="60" as="geometry" />
        </mxCell>
        <mxCell id="-bIso76fyn88DyohU2h1-13" value="X" style="text;html=1;align=center;verticalAlign=middle;whiteSpace=wrap;rounded=0;fontFamily=Helvetica;fontSize=12;fontColor=default;labelBackgroundColor=default;" vertex="1" parent="1">
          <mxGeometry x="480" y="420" width="60" height="30" as="geometry" />
        </mxCell>
        <mxCell id="-bIso76fyn88DyohU2h1-14" value="" style="rounded=1;whiteSpace=wrap;html=1;strokeWidth=2;fillWeight=4;hachureGap=8;hachureAngle=45;fillColor=#66FFB3;sketch=1;fontFamily=Helvetica;fontSize=12;fontColor=default;labelBackgroundColor=default;rotation=90;" vertex="1" parent="1">
          <mxGeometry x="520" y="405" width="120" height="60" as="geometry" />
        </mxCell>
        <mxCell id="-bIso76fyn88DyohU2h1-15" value="" style="rounded=1;whiteSpace=wrap;html=1;strokeWidth=2;fillWeight=4;hachureGap=8;hachureAngle=45;fillColor=#66FFB3;sketch=1;fontFamily=Helvetica;fontSize=12;fontColor=default;labelBackgroundColor=default;rotation=90;" vertex="1" parent="1">
          <mxGeometry x="580" y="405" width="120" height="60" as="geometry" />
        </mxCell>
        <mxCell id="-bIso76fyn88DyohU2h1-16" value="=" style="text;html=1;align=center;verticalAlign=middle;whiteSpace=wrap;rounded=0;fontFamily=Helvetica;fontSize=12;fontColor=default;labelBackgroundColor=default;" vertex="1" parent="1">
          <mxGeometry x="700" y="420" width="60" height="30" as="geometry" />
        </mxCell>
        <mxCell id="-bIso76fyn88DyohU2h1-23" value="" style="rounded=1;whiteSpace=wrap;html=1;strokeWidth=2;fillWeight=4;hachureGap=8;hachureAngle=45;fillColor=#FF33FF;sketch=1;fontFamily=Helvetica;fontSize=12;fontColor=default;labelBackgroundColor=default;" vertex="1" parent="1">
          <mxGeometry x="810" y="409" width="40" height="21" as="geometry" />
        </mxCell>
        <mxCell id="-bIso76fyn88DyohU2h1-24" value="" style="rounded=1;whiteSpace=wrap;html=1;strokeWidth=2;fillWeight=4;hachureGap=8;hachureAngle=45;fillColor=#FF33FF;sketch=1;fontFamily=Helvetica;fontSize=12;fontColor=default;labelBackgroundColor=default;" vertex="1" parent="1">
          <mxGeometry x="850" y="409" width="40" height="21" as="geometry" />
        </mxCell>
        <mxCell id="-bIso76fyn88DyohU2h1-25" value="" style="rounded=1;whiteSpace=wrap;html=1;strokeWidth=2;fillWeight=4;hachureGap=8;hachureAngle=45;fillColor=#FF33FF;sketch=1;fontFamily=Helvetica;fontSize=12;fontColor=default;labelBackgroundColor=default;" vertex="1" parent="1">
          <mxGeometry x="810" y="429" width="40" height="21" as="geometry" />
        </mxCell>
        <mxCell id="-bIso76fyn88DyohU2h1-26" value="" style="rounded=1;whiteSpace=wrap;html=1;strokeWidth=2;fillWeight=4;hachureGap=8;hachureAngle=45;fillColor=#FF33FF;sketch=1;fontFamily=Helvetica;fontSize=12;fontColor=default;labelBackgroundColor=default;" vertex="1" parent="1">
          <mxGeometry x="850" y="429" width="40" height="21" as="geometry" />
        </mxCell>
        <mxCell id="-bIso76fyn88DyohU2h1-27" value="last token embedding" style="rounded=1;whiteSpace=wrap;html=1;strokeWidth=2;fillWeight=4;hachureGap=8;hachureAngle=45;fillColor=#1ba1e2;sketch=1;fontFamily=Helvetica;fontSize=12;fontColor=default;labelBackgroundColor=default;" vertex="1" parent="1">
          <mxGeometry x="340" y="650" width="120" height="60" as="geometry" />
        </mxCell>
        <mxCell id="-bIso76fyn88DyohU2h1-28" value="" style="rounded=1;whiteSpace=wrap;html=1;strokeWidth=2;fillWeight=4;hachureGap=8;hachureAngle=45;fillColor=#66FFB3;sketch=1;fontFamily=Helvetica;fontSize=12;fontColor=default;labelBackgroundColor=default;rotation=90;" vertex="1" parent="1">
          <mxGeometry x="510" y="640" width="120" height="60" as="geometry" />
        </mxCell>
        <mxCell id="-bIso76fyn88DyohU2h1-29" value="X" style="text;html=1;align=center;verticalAlign=middle;whiteSpace=wrap;rounded=0;fontFamily=Helvetica;fontSize=12;fontColor=default;labelBackgroundColor=default;" vertex="1" parent="1">
          <mxGeometry x="480" y="665" width="60" height="30" as="geometry" />
        </mxCell>
        <mxCell id="-bIso76fyn88DyohU2h1-30" value="=" style="text;html=1;align=center;verticalAlign=middle;whiteSpace=wrap;rounded=0;fontFamily=Helvetica;fontSize=12;fontColor=default;labelBackgroundColor=default;" vertex="1" parent="1">
          <mxGeometry x="690" y="670" width="60" height="30" as="geometry" />
        </mxCell>
        <mxCell id="-bIso76fyn88DyohU2h1-31" value="" style="rounded=1;whiteSpace=wrap;html=1;strokeWidth=2;fillWeight=4;hachureGap=8;hachureAngle=45;fillColor=#FF33FF;sketch=1;fontFamily=Helvetica;fontSize=12;fontColor=default;labelBackgroundColor=default;" vertex="1" parent="1">
          <mxGeometry x="820" y="660" width="40" height="20" as="geometry" />
        </mxCell>
        <mxCell id="-bIso76fyn88DyohU2h1-32" value="" style="rounded=1;whiteSpace=wrap;html=1;strokeWidth=2;fillWeight=4;hachureGap=8;hachureAngle=45;fillColor=#FF33FF;sketch=1;fontFamily=Helvetica;fontSize=12;fontColor=default;labelBackgroundColor=default;" vertex="1" parent="1">
          <mxGeometry x="820" y="680" width="40" height="20" as="geometry" />
        </mxCell>
        <mxCell id="-bIso76fyn88DyohU2h1-33" value="" style="shape=link;html=1;rounded=1;dashed=1;sketch=1;fillWeight=4;hachureGap=8;hachureAngle=45;strokeColor=#3399FF;strokeWidth=2;align=center;verticalAlign=middle;fontFamily=Helvetica;fontSize=12;fontColor=default;labelBackgroundColor=default;edgeStyle=orthogonalEdgeStyle;endArrow=classic;fillColor=#1ba1e2;width=-5;" edge="1" parent="1" target="-bIso76fyn88DyohU2h1-34">
          <mxGeometry width="100" relative="1" as="geometry">
            <mxPoint x="330" y="559.5" as="sourcePoint" />
            <mxPoint x="430" y="559.5" as="targetPoint" />
            <Array as="points">
              <mxPoint x="430" y="559.5" />
              <mxPoint x="430" y="559.5" />
            </Array>
          </mxGeometry>
        </mxCell>
        <mxCell id="-bIso76fyn88DyohU2h1-34" value="" style="line;strokeWidth=2;html=1;fontFamily=Helvetica;fontSize=12;fontColor=default;labelBackgroundColor=default;" vertex="1" parent="1">
          <mxGeometry x="310" y="554.5" width="660" height="10" as="geometry" />
        </mxCell>
        <mxCell id="-bIso76fyn88DyohU2h1-35" value="Q" style="text;html=1;align=center;verticalAlign=middle;whiteSpace=wrap;rounded=0;fontFamily=Helvetica;fontSize=12;fontColor=default;labelBackgroundColor=default;" vertex="1" parent="1">
          <mxGeometry x="360" y="330" width="60" height="30" as="geometry" />
        </mxCell>
        <mxCell id="-bIso76fyn88DyohU2h1-36" value="Q" style="text;html=1;align=center;verticalAlign=middle;whiteSpace=wrap;rounded=0;fontFamily=Helvetica;fontSize=12;fontColor=default;labelBackgroundColor=default;" vertex="1" parent="1">
          <mxGeometry x="370" y="130" width="60" height="30" as="geometry" />
        </mxCell>
        <mxCell id="-bIso76fyn88DyohU2h1-37" value="K.T" style="text;html=1;align=center;verticalAlign=middle;whiteSpace=wrap;rounded=0;fontFamily=Helvetica;fontSize=12;fontColor=default;labelBackgroundColor=default;" vertex="1" parent="1">
          <mxGeometry x="600" y="110" width="60" height="30" as="geometry" />
        </mxCell>
        <mxCell id="-bIso76fyn88DyohU2h1-38" value="K.T" style="text;html=1;align=center;verticalAlign=middle;whiteSpace=wrap;rounded=0;fontFamily=Helvetica;fontSize=12;fontColor=default;labelBackgroundColor=default;" vertex="1" parent="1">
          <mxGeometry x="580" y="330" width="60" height="30" as="geometry" />
        </mxCell>
        <mxCell id="-bIso76fyn88DyohU2h1-39" value="" style="rounded=1;whiteSpace=wrap;html=1;strokeWidth=2;fillWeight=4;hachureGap=8;hachureAngle=45;fillColor=#66FFB3;sketch=1;fontFamily=Helvetica;fontSize=12;fontColor=default;labelBackgroundColor=default;rotation=90;" vertex="1" parent="1">
          <mxGeometry x="570" y="640" width="120" height="60" as="geometry" />
        </mxCell>
        <mxCell id="-bIso76fyn88DyohU2h1-40" value="" style="rounded=1;whiteSpace=wrap;html=1;strokeWidth=2;fillWeight=4;hachureGap=8;hachureAngle=45;fillColor=#FF33FF;sketch=1;fontFamily=Helvetica;fontSize=12;fontColor=default;labelBackgroundColor=default;" vertex="1" parent="1">
          <mxGeometry x="860" y="680" width="40" height="20" as="geometry" />
        </mxCell>
        <mxCell id="-bIso76fyn88DyohU2h1-41" value="" style="rounded=1;whiteSpace=wrap;html=1;strokeWidth=2;fillWeight=4;hachureGap=8;hachureAngle=45;fillColor=#1ba1e2;sketch=1;fontFamily=Helvetica;fontSize=12;fontColor=default;labelBackgroundColor=default;" vertex="1" parent="1">
          <mxGeometry x="310" y="1020" width="120" height="60" as="geometry" />
        </mxCell>
        <mxCell id="-bIso76fyn88DyohU2h1-42" value="" style="rounded=1;whiteSpace=wrap;html=1;strokeWidth=2;fillWeight=4;hachureGap=8;hachureAngle=45;fillColor=#1ba1e2;sketch=1;fontFamily=Helvetica;fontSize=12;fontColor=default;labelBackgroundColor=default;" vertex="1" parent="1">
          <mxGeometry x="310" y="1080" width="120" height="60" as="geometry" />
        </mxCell>
        <mxCell id="-bIso76fyn88DyohU2h1-43" value="X" style="text;html=1;align=center;verticalAlign=middle;whiteSpace=wrap;rounded=0;fontFamily=Helvetica;fontSize=12;fontColor=default;labelBackgroundColor=default;" vertex="1" parent="1">
          <mxGeometry x="450" y="1095" width="60" height="30" as="geometry" />
        </mxCell>
        <mxCell id="-bIso76fyn88DyohU2h1-44" value="" style="rounded=1;whiteSpace=wrap;html=1;strokeWidth=2;fillWeight=4;hachureGap=8;hachureAngle=45;fillColor=#66FFB3;sketch=1;fontFamily=Helvetica;fontSize=12;fontColor=default;labelBackgroundColor=default;rotation=90;" vertex="1" parent="1">
          <mxGeometry x="490" y="1070" width="120" height="60" as="geometry" />
        </mxCell>
        <mxCell id="-bIso76fyn88DyohU2h1-45" value="" style="rounded=1;whiteSpace=wrap;html=1;strokeWidth=2;fillWeight=4;hachureGap=8;hachureAngle=45;fillColor=#66FFB3;sketch=1;fontFamily=Helvetica;fontSize=12;fontColor=default;labelBackgroundColor=default;rotation=90;" vertex="1" parent="1">
          <mxGeometry x="550" y="1070" width="120" height="60" as="geometry" />
        </mxCell>
        <mxCell id="-bIso76fyn88DyohU2h1-46" value="=" style="text;html=1;align=center;verticalAlign=middle;whiteSpace=wrap;rounded=0;fontFamily=Helvetica;fontSize=12;fontColor=default;labelBackgroundColor=default;" vertex="1" parent="1">
          <mxGeometry x="700" y="1060" width="60" height="30" as="geometry" />
        </mxCell>
        <mxCell id="-bIso76fyn88DyohU2h1-47" value="" style="rounded=1;whiteSpace=wrap;html=1;strokeWidth=2;fillWeight=4;hachureGap=8;hachureAngle=45;fillColor=#FF33FF;sketch=1;fontFamily=Helvetica;fontSize=12;fontColor=default;labelBackgroundColor=default;" vertex="1" parent="1">
          <mxGeometry x="780" y="1049" width="40" height="21" as="geometry" />
        </mxCell>
        <mxCell id="-bIso76fyn88DyohU2h1-48" value="" style="rounded=1;whiteSpace=wrap;html=1;strokeWidth=2;fillWeight=4;hachureGap=8;hachureAngle=45;fillColor=#FF33FF;sketch=1;fontFamily=Helvetica;fontSize=12;fontColor=default;labelBackgroundColor=default;" vertex="1" parent="1">
          <mxGeometry x="820" y="1049" width="40" height="21" as="geometry" />
        </mxCell>
        <mxCell id="-bIso76fyn88DyohU2h1-49" value="" style="rounded=1;whiteSpace=wrap;html=1;strokeWidth=2;fillWeight=4;hachureGap=8;hachureAngle=45;fillColor=#FF33FF;sketch=1;fontFamily=Helvetica;fontSize=12;fontColor=default;labelBackgroundColor=default;" vertex="1" parent="1">
          <mxGeometry x="780" y="1069" width="40" height="21" as="geometry" />
        </mxCell>
        <mxCell id="-bIso76fyn88DyohU2h1-50" value="" style="rounded=1;whiteSpace=wrap;html=1;strokeWidth=2;fillWeight=4;hachureGap=8;hachureAngle=45;fillColor=#FF33FF;sketch=1;fontFamily=Helvetica;fontSize=12;fontColor=default;labelBackgroundColor=default;" vertex="1" parent="1">
          <mxGeometry x="820" y="1069" width="40" height="21" as="geometry" />
        </mxCell>
        <mxCell id="-bIso76fyn88DyohU2h1-51" value="2nd token embedding" style="rounded=1;whiteSpace=wrap;html=1;strokeWidth=2;fillWeight=4;hachureGap=8;hachureAngle=45;fillColor=#1ba1e2;sketch=1;fontFamily=Helvetica;fontSize=12;fontColor=default;labelBackgroundColor=default;" vertex="1" parent="1">
          <mxGeometry x="310" y="1290" width="120" height="60" as="geometry" />
        </mxCell>
        <mxCell id="-bIso76fyn88DyohU2h1-52" value="" style="rounded=1;whiteSpace=wrap;html=1;strokeWidth=2;fillWeight=4;hachureGap=8;hachureAngle=45;fillColor=#66FFB3;sketch=1;fontFamily=Helvetica;fontSize=12;fontColor=default;labelBackgroundColor=default;rotation=90;" vertex="1" parent="1">
          <mxGeometry x="480" y="1280" width="120" height="60" as="geometry" />
        </mxCell>
        <mxCell id="-bIso76fyn88DyohU2h1-53" value="X" style="text;html=1;align=center;verticalAlign=middle;whiteSpace=wrap;rounded=0;fontFamily=Helvetica;fontSize=12;fontColor=default;labelBackgroundColor=default;" vertex="1" parent="1">
          <mxGeometry x="450" y="1305" width="60" height="30" as="geometry" />
        </mxCell>
        <mxCell id="-bIso76fyn88DyohU2h1-54" value="=" style="text;html=1;align=center;verticalAlign=middle;whiteSpace=wrap;rounded=0;fontFamily=Helvetica;fontSize=12;fontColor=default;labelBackgroundColor=default;" vertex="1" parent="1">
          <mxGeometry x="710" y="1310" width="60" height="30" as="geometry" />
        </mxCell>
        <mxCell id="-bIso76fyn88DyohU2h1-55" value="" style="rounded=1;whiteSpace=wrap;html=1;strokeWidth=2;fillWeight=4;hachureGap=8;hachureAngle=45;fillColor=#FF33FF;sketch=1;fontFamily=Helvetica;fontSize=12;fontColor=default;labelBackgroundColor=default;" vertex="1" parent="1">
          <mxGeometry x="790" y="1300" width="40" height="20" as="geometry" />
        </mxCell>
        <mxCell id="-bIso76fyn88DyohU2h1-56" value="" style="rounded=1;whiteSpace=wrap;html=1;strokeWidth=2;fillWeight=4;hachureGap=8;hachureAngle=45;fillColor=#FF33FF;sketch=1;fontFamily=Helvetica;fontSize=12;fontColor=default;labelBackgroundColor=default;" vertex="1" parent="1">
          <mxGeometry x="790" y="1320" width="40" height="20" as="geometry" />
        </mxCell>
        <mxCell id="-bIso76fyn88DyohU2h1-58" value="" style="line;strokeWidth=2;html=1;fontFamily=Helvetica;fontSize=12;fontColor=default;labelBackgroundColor=default;" vertex="1" parent="1">
          <mxGeometry x="280" y="1220" width="660" height="10" as="geometry" />
        </mxCell>
        <mxCell id="-bIso76fyn88DyohU2h1-59" value="Q" style="text;html=1;align=center;verticalAlign=middle;whiteSpace=wrap;rounded=0;fontFamily=Helvetica;fontSize=12;fontColor=default;labelBackgroundColor=default;" vertex="1" parent="1">
          <mxGeometry x="330" y="970" width="60" height="30" as="geometry" />
        </mxCell>
        <mxCell id="-bIso76fyn88DyohU2h1-60" value="K.T" style="text;html=1;align=center;verticalAlign=middle;whiteSpace=wrap;rounded=0;fontFamily=Helvetica;fontSize=12;fontColor=default;labelBackgroundColor=default;" vertex="1" parent="1">
          <mxGeometry x="550" y="970" width="60" height="30" as="geometry" />
        </mxCell>
        <mxCell id="-bIso76fyn88DyohU2h1-61" value="" style="rounded=1;whiteSpace=wrap;html=1;strokeWidth=2;fillWeight=4;hachureGap=8;hachureAngle=45;fillColor=#66FFB3;sketch=1;fontFamily=Helvetica;fontSize=12;fontColor=default;labelBackgroundColor=default;rotation=90;" vertex="1" parent="1">
          <mxGeometry x="540" y="1280" width="120" height="60" as="geometry" />
        </mxCell>
        <mxCell id="-bIso76fyn88DyohU2h1-62" value="" style="rounded=1;whiteSpace=wrap;html=1;strokeWidth=2;fillWeight=4;hachureGap=8;hachureAngle=45;fillColor=#FF33FF;sketch=1;fontFamily=Helvetica;fontSize=12;fontColor=default;labelBackgroundColor=default;" vertex="1" parent="1">
          <mxGeometry x="830" y="1320" width="40" height="20" as="geometry" />
        </mxCell>
        <mxCell id="-bIso76fyn88DyohU2h1-63" value="" style="line;strokeWidth=2;html=1;fontFamily=Helvetica;fontSize=12;fontColor=default;labelBackgroundColor=default;" vertex="1" parent="1">
          <mxGeometry x="300" y="1400" width="660" height="10" as="geometry" />
        </mxCell>
        <mxCell id="-bIso76fyn88DyohU2h1-64" value="" style="rounded=1;whiteSpace=wrap;html=1;strokeWidth=2;fillWeight=4;hachureGap=8;hachureAngle=45;fillColor=#66FFB3;sketch=1;fontFamily=Helvetica;fontSize=12;fontColor=default;labelBackgroundColor=default;rotation=90;" vertex="1" parent="1">
          <mxGeometry x="610" y="1069" width="120" height="60" as="geometry" />
        </mxCell>
        <mxCell id="-bIso76fyn88DyohU2h1-65" value="" style="rounded=1;whiteSpace=wrap;html=1;strokeWidth=2;fillWeight=4;hachureGap=8;hachureAngle=45;fillColor=#1ba1e2;sketch=1;fontFamily=Helvetica;fontSize=12;fontColor=default;labelBackgroundColor=default;" vertex="1" parent="1">
          <mxGeometry x="310" y="1140" width="120" height="60" as="geometry" />
        </mxCell>
        <mxCell id="-bIso76fyn88DyohU2h1-66" value="" style="rounded=1;whiteSpace=wrap;html=1;strokeWidth=2;fillWeight=4;hachureGap=8;hachureAngle=45;fillColor=#FF33FF;sketch=1;fontFamily=Helvetica;fontSize=12;fontColor=default;labelBackgroundColor=default;" vertex="1" parent="1">
          <mxGeometry x="860" y="1048" width="40" height="21" as="geometry" />
        </mxCell>
        <mxCell id="-bIso76fyn88DyohU2h1-67" value="" style="rounded=1;whiteSpace=wrap;html=1;strokeWidth=2;fillWeight=4;hachureGap=8;hachureAngle=45;fillColor=#FF33FF;sketch=1;fontFamily=Helvetica;fontSize=12;fontColor=default;labelBackgroundColor=default;" vertex="1" parent="1">
          <mxGeometry x="860" y="1070" width="40" height="21" as="geometry" />
        </mxCell>
        <mxCell id="-bIso76fyn88DyohU2h1-68" value="" style="rounded=1;whiteSpace=wrap;html=1;strokeWidth=2;fillWeight=4;hachureGap=8;hachureAngle=45;fillColor=#FF33FF;sketch=1;fontFamily=Helvetica;fontSize=12;fontColor=default;labelBackgroundColor=default;" vertex="1" parent="1">
          <mxGeometry x="780" y="1091" width="40" height="21" as="geometry" />
        </mxCell>
        <mxCell id="-bIso76fyn88DyohU2h1-69" value="" style="rounded=1;whiteSpace=wrap;html=1;strokeWidth=2;fillWeight=4;hachureGap=8;hachureAngle=45;fillColor=#FF33FF;sketch=1;fontFamily=Helvetica;fontSize=12;fontColor=default;labelBackgroundColor=default;" vertex="1" parent="1">
          <mxGeometry x="820" y="1091" width="40" height="21" as="geometry" />
        </mxCell>
        <mxCell id="-bIso76fyn88DyohU2h1-70" value="" style="rounded=1;whiteSpace=wrap;html=1;strokeWidth=2;fillWeight=4;hachureGap=8;hachureAngle=45;fillColor=#FF33FF;sketch=1;fontFamily=Helvetica;fontSize=12;fontColor=default;labelBackgroundColor=default;" vertex="1" parent="1">
          <mxGeometry x="860" y="1091" width="40" height="21" as="geometry" />
        </mxCell>
        <mxCell id="-bIso76fyn88DyohU2h1-76" value="last token embedding" style="rounded=1;whiteSpace=wrap;html=1;strokeWidth=2;fillWeight=4;hachureGap=8;hachureAngle=45;fillColor=#1ba1e2;sketch=1;fontFamily=Helvetica;fontSize=12;fontColor=default;labelBackgroundColor=default;" vertex="1" parent="1">
          <mxGeometry x="310" y="1460" width="120" height="60" as="geometry" />
        </mxCell>
        <mxCell id="-bIso76fyn88DyohU2h1-77" value="" style="rounded=1;whiteSpace=wrap;html=1;strokeWidth=2;fillWeight=4;hachureGap=8;hachureAngle=45;fillColor=#66FFB3;sketch=1;fontFamily=Helvetica;fontSize=12;fontColor=default;labelBackgroundColor=default;rotation=90;" vertex="1" parent="1">
          <mxGeometry x="480" y="1450" width="120" height="60" as="geometry" />
        </mxCell>
        <mxCell id="-bIso76fyn88DyohU2h1-78" value="X" style="text;html=1;align=center;verticalAlign=middle;whiteSpace=wrap;rounded=0;fontFamily=Helvetica;fontSize=12;fontColor=default;labelBackgroundColor=default;" vertex="1" parent="1">
          <mxGeometry x="450" y="1475" width="60" height="30" as="geometry" />
        </mxCell>
        <mxCell id="-bIso76fyn88DyohU2h1-79" value="" style="rounded=1;whiteSpace=wrap;html=1;strokeWidth=2;fillWeight=4;hachureGap=8;hachureAngle=45;fillColor=#66FFB3;sketch=1;fontFamily=Helvetica;fontSize=12;fontColor=default;labelBackgroundColor=default;rotation=90;" vertex="1" parent="1">
          <mxGeometry x="540" y="1450" width="120" height="60" as="geometry" />
        </mxCell>
        <mxCell id="-bIso76fyn88DyohU2h1-80" value="" style="rounded=1;whiteSpace=wrap;html=1;strokeWidth=2;fillWeight=4;hachureGap=8;hachureAngle=45;fillColor=#66FFB3;sketch=1;fontFamily=Helvetica;fontSize=12;fontColor=default;labelBackgroundColor=default;rotation=90;" vertex="1" parent="1">
          <mxGeometry x="600" y="1450" width="120" height="60" as="geometry" />
        </mxCell>
        <mxCell id="-bIso76fyn88DyohU2h1-81" value="=" style="text;html=1;align=center;verticalAlign=middle;whiteSpace=wrap;rounded=0;fontFamily=Helvetica;fontSize=12;fontColor=default;labelBackgroundColor=default;" vertex="1" parent="1">
          <mxGeometry x="710" y="1470" width="60" height="30" as="geometry" />
        </mxCell>
        <mxCell id="-bIso76fyn88DyohU2h1-82" value="" style="rounded=1;whiteSpace=wrap;html=1;strokeWidth=2;fillWeight=4;hachureGap=8;hachureAngle=45;fillColor=#FF33FF;sketch=1;fontFamily=Helvetica;fontSize=12;fontColor=default;labelBackgroundColor=default;" vertex="1" parent="1">
          <mxGeometry x="780" y="1435" width="40" height="20" as="geometry" />
        </mxCell>
        <mxCell id="-bIso76fyn88DyohU2h1-83" value="" style="rounded=1;whiteSpace=wrap;html=1;strokeWidth=2;fillWeight=4;hachureGap=8;hachureAngle=45;fillColor=#FF33FF;sketch=1;fontFamily=Helvetica;fontSize=12;fontColor=default;labelBackgroundColor=default;" vertex="1" parent="1">
          <mxGeometry x="780" y="1455" width="40" height="20" as="geometry" />
        </mxCell>
        <mxCell id="-bIso76fyn88DyohU2h1-84" value="" style="rounded=1;whiteSpace=wrap;html=1;strokeWidth=2;fillWeight=4;hachureGap=8;hachureAngle=45;fillColor=#FF33FF;sketch=1;fontFamily=Helvetica;fontSize=12;fontColor=default;labelBackgroundColor=default;" vertex="1" parent="1">
          <mxGeometry x="820" y="1455" width="40" height="20" as="geometry" />
        </mxCell>
        <mxCell id="-bIso76fyn88DyohU2h1-85" value="" style="rounded=1;whiteSpace=wrap;html=1;strokeWidth=2;fillWeight=4;hachureGap=8;hachureAngle=45;fillColor=#FF33FF;sketch=1;fontFamily=Helvetica;fontSize=12;fontColor=default;labelBackgroundColor=default;" vertex="1" parent="1">
          <mxGeometry x="780" y="1475" width="40" height="20" as="geometry" />
        </mxCell>
        <mxCell id="-bIso76fyn88DyohU2h1-86" value="" style="rounded=1;whiteSpace=wrap;html=1;strokeWidth=2;fillWeight=4;hachureGap=8;hachureAngle=45;fillColor=#FF33FF;sketch=1;fontFamily=Helvetica;fontSize=12;fontColor=default;labelBackgroundColor=default;" vertex="1" parent="1">
          <mxGeometry x="820" y="1475" width="40" height="20" as="geometry" />
        </mxCell>
        <mxCell id="-bIso76fyn88DyohU2h1-87" value="" style="rounded=1;whiteSpace=wrap;html=1;strokeWidth=2;fillWeight=4;hachureGap=8;hachureAngle=45;fillColor=#FF33FF;sketch=1;fontFamily=Helvetica;fontSize=12;fontColor=default;labelBackgroundColor=default;" vertex="1" parent="1">
          <mxGeometry x="860" y="1475" width="40" height="20" as="geometry" />
        </mxCell>
        <mxCell id="-bIso76fyn88DyohU2h1-89" value="KV- cache" style="rounded=1;whiteSpace=wrap;html=1;strokeWidth=2;fillWeight=4;hachureGap=8;hachureAngle=45;fillColor=#1ba1e2;sketch=1;fontFamily=Helvetica;fontSize=12;fontColor=default;labelBackgroundColor=default;" vertex="1" parent="1">
          <mxGeometry x="520" y="1740" width="120" height="60" as="geometry" />
        </mxCell>
        <mxCell id="-bIso76fyn88DyohU2h1-91" value="" style="endArrow=classic;html=1;rounded=1;dashed=1;sketch=1;fillWeight=4;hachureGap=8;hachureAngle=45;strokeColor=#3399FF;strokeWidth=2;align=center;verticalAlign=middle;fontFamily=Helvetica;fontSize=12;fontColor=default;labelBackgroundColor=default;fillColor=#1ba1e2;" edge="1" parent="1">
          <mxGeometry width="50" height="50" relative="1" as="geometry">
            <mxPoint x="1640" y="540" as="sourcePoint" />
            <mxPoint x="1960" y="240" as="targetPoint" />
          </mxGeometry>
        </mxCell>
        <mxCell id="-bIso76fyn88DyohU2h1-94" value="X_1" style="edgeLabel;html=1;align=center;verticalAlign=middle;resizable=0;points=[];fontFamily=Helvetica;fontSize=12;fontColor=default;labelBackgroundColor=default;" vertex="1" connectable="0" parent="-bIso76fyn88DyohU2h1-91">
          <mxGeometry x="0.7709" y="1" relative="1" as="geometry">
            <mxPoint x="1" as="offset" />
          </mxGeometry>
        </mxCell>
        <mxCell id="-bIso76fyn88DyohU2h1-93" value="X_2&lt;div&gt;&lt;br&gt;&lt;/div&gt;" style="endArrow=classic;html=1;rounded=1;dashed=1;sketch=1;fillWeight=4;hachureGap=8;hachureAngle=45;strokeColor=#3399FF;strokeWidth=2;align=center;verticalAlign=middle;fontFamily=Helvetica;fontSize=12;fontColor=default;labelBackgroundColor=default;fillColor=#1ba1e2;" edge="1" parent="1">
          <mxGeometry x="0.0372" y="-12" width="50" height="50" relative="1" as="geometry">
            <mxPoint x="1650" y="540" as="sourcePoint" />
            <mxPoint x="2070" y="460" as="targetPoint" />
            <mxPoint as="offset" />
          </mxGeometry>
        </mxCell>
        <mxCell id="-bIso76fyn88DyohU2h1-95" value="theta" style="text;html=1;align=center;verticalAlign=middle;resizable=0;points=[];autosize=1;strokeColor=none;fillColor=none;fontFamily=Helvetica;fontSize=12;fontColor=default;labelBackgroundColor=default;" vertex="1" parent="1">
          <mxGeometry x="1706" y="479" width="50" height="30" as="geometry" />
        </mxCell>
        <mxCell id="-bIso76fyn88DyohU2h1-96" value="X_1 x X_2" style="text;html=1;align=center;verticalAlign=middle;resizable=0;points=[];autosize=1;strokeColor=none;fillColor=none;fontFamily=Helvetica;fontSize=12;fontColor=default;labelBackgroundColor=default;" vertex="1" parent="1">
          <mxGeometry x="1930" y="380" width="80" height="30" as="geometry" />
        </mxCell>
        <mxCell id="-bIso76fyn88DyohU2h1-97" value="" style="rounded=1;whiteSpace=wrap;html=1;strokeWidth=2;fillWeight=4;hachureGap=8;hachureAngle=45;fillColor=#FF33FF;sketch=1;fontFamily=Helvetica;fontSize=12;fontColor=default;labelBackgroundColor=default;" vertex="1" parent="1">
          <mxGeometry x="1630" y="700" width="40" height="21" as="geometry" />
        </mxCell>
        <mxCell id="-bIso76fyn88DyohU2h1-100" value="" style="rounded=1;whiteSpace=wrap;html=1;strokeWidth=2;fillWeight=4;hachureGap=8;hachureAngle=45;fillColor=#FF33FF;sketch=1;fontFamily=Helvetica;fontSize=12;fontColor=default;labelBackgroundColor=default;" vertex="1" parent="1">
          <mxGeometry x="1630" y="721" width="40" height="21" as="geometry" />
        </mxCell>
        <mxCell id="-bIso76fyn88DyohU2h1-101" value="" style="rounded=1;whiteSpace=wrap;html=1;strokeWidth=2;fillWeight=4;hachureGap=8;hachureAngle=45;fillColor=#FF33FF;sketch=1;fontFamily=Helvetica;fontSize=12;fontColor=default;labelBackgroundColor=default;" vertex="1" parent="1">
          <mxGeometry x="1630" y="742" width="40" height="21" as="geometry" />
        </mxCell>
        <mxCell id="-bIso76fyn88DyohU2h1-102" value="" style="rounded=1;whiteSpace=wrap;html=1;strokeWidth=2;fillWeight=4;hachureGap=8;hachureAngle=45;fillColor=#FF33FF;sketch=1;fontFamily=Helvetica;fontSize=12;fontColor=default;labelBackgroundColor=default;" vertex="1" parent="1">
          <mxGeometry x="1630" y="763" width="40" height="21" as="geometry" />
        </mxCell>
        <mxCell id="-bIso76fyn88DyohU2h1-103" value="" style="rounded=1;whiteSpace=wrap;html=1;strokeWidth=2;fillWeight=4;hachureGap=8;hachureAngle=45;fillColor=#FF33FF;sketch=1;fontFamily=Helvetica;fontSize=12;fontColor=default;labelBackgroundColor=default;" vertex="1" parent="1">
          <mxGeometry x="1630" y="790" width="40" height="21" as="geometry" />
        </mxCell>
        <mxCell id="-bIso76fyn88DyohU2h1-104" value="" style="rounded=1;whiteSpace=wrap;html=1;strokeWidth=2;fillWeight=4;hachureGap=8;hachureAngle=45;fillColor=#FF33FF;sketch=1;fontFamily=Helvetica;fontSize=12;fontColor=default;labelBackgroundColor=default;" vertex="1" parent="1">
          <mxGeometry x="1630" y="850" width="40" height="21" as="geometry" />
        </mxCell>
        <mxCell id="-bIso76fyn88DyohU2h1-105" value="" style="rounded=1;whiteSpace=wrap;html=1;strokeWidth=2;fillWeight=4;hachureGap=8;hachureAngle=45;fillColor=#FF33FF;sketch=1;fontFamily=Helvetica;fontSize=12;fontColor=default;labelBackgroundColor=default;" vertex="1" parent="1">
          <mxGeometry x="1630" y="880" width="40" height="21" as="geometry" />
        </mxCell>
        <mxCell id="-bIso76fyn88DyohU2h1-106" value="" style="shape=waypoint;sketch=0;size=6;pointerEvents=1;points=[];fillColor=none;resizable=0;rotatable=0;perimeter=centerPerimeter;snapToPoint=1;fontFamily=Helvetica;fontSize=12;fontColor=default;labelBackgroundColor=default;" vertex="1" parent="1">
          <mxGeometry x="1640" y="810" width="20" height="20" as="geometry" />
        </mxCell>
        <mxCell id="-bIso76fyn88DyohU2h1-108" value="" style="shape=waypoint;sketch=0;size=6;pointerEvents=1;points=[];fillColor=none;resizable=0;rotatable=0;perimeter=centerPerimeter;snapToPoint=1;fontFamily=Helvetica;fontSize=12;fontColor=default;labelBackgroundColor=default;" vertex="1" parent="1">
          <mxGeometry x="1640" y="820" width="20" height="20" as="geometry" />
        </mxCell>
        <mxCell id="-bIso76fyn88DyohU2h1-109" value="" style="shape=waypoint;sketch=0;size=6;pointerEvents=1;points=[];fillColor=none;resizable=0;rotatable=0;perimeter=centerPerimeter;snapToPoint=1;fontFamily=Helvetica;fontSize=12;fontColor=default;labelBackgroundColor=default;" vertex="1" parent="1">
          <mxGeometry x="1640" y="830" width="20" height="20" as="geometry" />
        </mxCell>
        <mxCell id="-bIso76fyn88DyohU2h1-110" value="X_1" style="text;html=1;align=center;verticalAlign=middle;resizable=0;points=[];autosize=1;strokeColor=none;fillColor=none;fontFamily=Helvetica;fontSize=12;fontColor=default;labelBackgroundColor=default;" vertex="1" parent="1">
          <mxGeometry x="1626" y="649" width="50" height="30" as="geometry" />
        </mxCell>
        <mxCell id="-bIso76fyn88DyohU2h1-111" value="" style="rounded=1;whiteSpace=wrap;html=1;strokeWidth=2;fillWeight=4;hachureGap=8;hachureAngle=45;fillColor=#FF33FF;sketch=1;fontFamily=Helvetica;fontSize=12;fontColor=default;labelBackgroundColor=default;" vertex="1" parent="1">
          <mxGeometry x="1844" y="700" width="40" height="21" as="geometry" />
        </mxCell>
        <mxCell id="-bIso76fyn88DyohU2h1-112" value="" style="rounded=1;whiteSpace=wrap;html=1;strokeWidth=2;fillWeight=4;hachureGap=8;hachureAngle=45;fillColor=#FF33FF;sketch=1;fontFamily=Helvetica;fontSize=12;fontColor=default;labelBackgroundColor=default;" vertex="1" parent="1">
          <mxGeometry x="1844" y="721" width="40" height="21" as="geometry" />
        </mxCell>
        <mxCell id="-bIso76fyn88DyohU2h1-113" value="" style="rounded=1;whiteSpace=wrap;html=1;strokeWidth=2;fillWeight=4;hachureGap=8;hachureAngle=45;fillColor=#FF33FF;sketch=1;fontFamily=Helvetica;fontSize=12;fontColor=default;labelBackgroundColor=default;" vertex="1" parent="1">
          <mxGeometry x="1844" y="742" width="40" height="21" as="geometry" />
        </mxCell>
        <mxCell id="-bIso76fyn88DyohU2h1-114" value="" style="rounded=1;whiteSpace=wrap;html=1;strokeWidth=2;fillWeight=4;hachureGap=8;hachureAngle=45;fillColor=#FF33FF;sketch=1;fontFamily=Helvetica;fontSize=12;fontColor=default;labelBackgroundColor=default;" vertex="1" parent="1">
          <mxGeometry x="1844" y="763" width="40" height="21" as="geometry" />
        </mxCell>
        <mxCell id="-bIso76fyn88DyohU2h1-115" value="" style="rounded=1;whiteSpace=wrap;html=1;strokeWidth=2;fillWeight=4;hachureGap=8;hachureAngle=45;fillColor=#FF33FF;sketch=1;fontFamily=Helvetica;fontSize=12;fontColor=default;labelBackgroundColor=default;" vertex="1" parent="1">
          <mxGeometry x="1844" y="790" width="40" height="21" as="geometry" />
        </mxCell>
        <mxCell id="-bIso76fyn88DyohU2h1-116" value="" style="rounded=1;whiteSpace=wrap;html=1;strokeWidth=2;fillWeight=4;hachureGap=8;hachureAngle=45;fillColor=#FF33FF;sketch=1;fontFamily=Helvetica;fontSize=12;fontColor=default;labelBackgroundColor=default;" vertex="1" parent="1">
          <mxGeometry x="1844" y="850" width="40" height="21" as="geometry" />
        </mxCell>
        <mxCell id="-bIso76fyn88DyohU2h1-117" value="" style="rounded=1;whiteSpace=wrap;html=1;strokeWidth=2;fillWeight=4;hachureGap=8;hachureAngle=45;fillColor=#FF33FF;sketch=1;fontFamily=Helvetica;fontSize=12;fontColor=default;labelBackgroundColor=default;" vertex="1" parent="1">
          <mxGeometry x="1844" y="880" width="40" height="21" as="geometry" />
        </mxCell>
        <mxCell id="-bIso76fyn88DyohU2h1-118" value="" style="shape=waypoint;sketch=0;size=6;pointerEvents=1;points=[];fillColor=none;resizable=0;rotatable=0;perimeter=centerPerimeter;snapToPoint=1;fontFamily=Helvetica;fontSize=12;fontColor=default;labelBackgroundColor=default;" vertex="1" parent="1">
          <mxGeometry x="1854" y="810" width="20" height="20" as="geometry" />
        </mxCell>
        <mxCell id="-bIso76fyn88DyohU2h1-119" value="" style="shape=waypoint;sketch=0;size=6;pointerEvents=1;points=[];fillColor=none;resizable=0;rotatable=0;perimeter=centerPerimeter;snapToPoint=1;fontFamily=Helvetica;fontSize=12;fontColor=default;labelBackgroundColor=default;" vertex="1" parent="1">
          <mxGeometry x="1854" y="820" width="20" height="20" as="geometry" />
        </mxCell>
        <mxCell id="-bIso76fyn88DyohU2h1-120" value="" style="shape=waypoint;sketch=0;size=6;pointerEvents=1;points=[];fillColor=none;resizable=0;rotatable=0;perimeter=centerPerimeter;snapToPoint=1;fontFamily=Helvetica;fontSize=12;fontColor=default;labelBackgroundColor=default;" vertex="1" parent="1">
          <mxGeometry x="1854" y="830" width="20" height="20" as="geometry" />
        </mxCell>
        <mxCell id="-bIso76fyn88DyohU2h1-121" value="X_2" style="text;html=1;align=center;verticalAlign=middle;resizable=0;points=[];autosize=1;strokeColor=none;fillColor=none;fontFamily=Helvetica;fontSize=12;fontColor=default;labelBackgroundColor=default;" vertex="1" parent="1">
          <mxGeometry x="1840" y="649" width="50" height="30" as="geometry" />
        </mxCell>
      </root>
    </mxGraphModel>
  </diagram>
</mxfile>
